<svg width="82" height="77" viewBox="0 0 82 77" fill="none" xmlns="http://www.w3.org/2000/svg">
<path d="M3.7085 13.2443C6.6793 6.43291 43.0275 -1.42085 71.5214 0.220023C75.5993 0.45486 78.9112 3.50107 79.5751 7.53145C83.3687 30.5595 82.5297 55.8828 78.3198 67.035C73.6958 79.2844 8.76356 80.4381 3.7085 67.035C-1.34656 53.6319 0.495202 20.6117 3.7085 13.2443Z" fill="#E5ECF8"/>
<path fill-rule="evenodd" clip-rule="evenodd" d="M0.576037 40.0273C0.49088 50.2342 1.34735 60.7745 3.7085 67.0349C8.76356 80.4381 73.6958 79.2843 78.3198 67.0349C80.7846 60.5056 82.0939 49.1186 81.9945 36.1787C81.9026 47.982 80.61 58.2425 78.3198 64.3092C73.6958 76.5586 8.76356 77.7124 3.7085 64.3092C1.55717 58.6051 0.654978 49.348 0.576037 40.0273Z" fill="#7F9AC9"/>
<g style="mix-blend-mode:multiply">
<path d="M4.16344 67.7894C-0.878091 56.7225 8.00102 64.0436 8.00102 64.0436C35.882 77.3306 76.9268 73.4079 76.9268 47.6987C76.9268 47.6987 81.4415 57.8873 76.9268 69.1514C72.4121 80.4156 9.58117 79.1968 4.16344 67.7894Z" fill="#B5CEFC"/>
</g>
<path d="M7.79631 17.7161C10.4192 11.988 42.2351 5.39154 67.5183 6.62297C71.5829 6.82094 74.9107 9.82845 75.5749 13.8433C78.7648 33.1264 77.9804 54.0688 74.2909 63.3784C70.1699 73.7767 12.3014 74.7562 7.79631 63.3784C3.29117 52.0006 4.93257 23.9702 7.79631 17.7161Z" fill="url(#paint0_linear_80_762)"/>
<path d="M67.5208 6.62293C42.2406 5.39169 10.4289 11.9881 7.80636 17.7161C4.96722 23.9171 12.9435 29.8641 19.7396 29.2918C32.2277 28.2404 46.5332 29.5616 51.7006 31.1746C53.0832 31.6061 54.6669 31.9262 56.3626 32.1928C64.6315 33.4931 77.0995 23.6929 75.8287 15.4194C75.7479 14.8933 75.6642 14.3681 75.5775 13.8441C74.9134 9.82916 71.5855 6.82089 67.5208 6.62293Z" fill="url(#paint1_linear_80_762)"/>
<path fill-rule="evenodd" clip-rule="evenodd" d="M5.11057 39.0366C4.93595 48.1291 5.66201 57.7739 7.87584 63.3783C12.3703 74.7561 70.1011 73.7766 74.2123 63.3783C76.4973 57.5989 77.6654 47.3362 77.4613 35.7705C77.2895 45.2063 76.1543 53.3561 74.2123 58.2678C70.1011 68.6661 12.3703 69.6455 7.87584 58.2678C6.07452 53.7077 5.25819 46.4726 5.11057 39.0366Z" fill="#0E357B"/>
<g filter="url(#filter0_d_80_762)">
<path d="M59.193 39.7822C59.0035 39.6332 58.908 39.3954 58.9339 39.1558C58.9981 38.5612 59.0303 37.9477 59.0303 37.302C59.0303 36.6806 58.9986 36.0592 58.9224 35.4637C58.8907 35.2156 58.9848 34.9676 59.1822 34.814C60.2023 34.0199 63.3421 31.576 63.7007 31.2971C64.0741 31.0067 64.2127 30.4815 64.0694 30.036C64.0276 29.9059 63.994 29.7689 64.0058 29.6327C64.3685 25.4509 63.4888 23.6638 59.6362 22.0264C59.4924 21.9653 59.3766 21.8524 59.2748 21.7339C58.9608 21.3682 58.4567 21.2647 58.0056 21.4082L52.6692 23.5517C52.4467 23.6411 52.1963 23.6028 51.9934 23.4751C51.0242 22.865 50.4881 23.126 48.4503 21.4559C46.4619 19.8261 47.3192 16.3462 47.5444 15.5624C47.5749 15.4561 47.5865 15.3453 47.5536 15.2397C47.4237 14.8236 47.0816 14.5218 46.6605 14.4454C46.5241 14.4206 46.3864 14.3829 46.2717 14.3049C42.9762 12.063 40.9981 11.8859 37.4769 14.3027C37.3615 14.3819 37.2222 14.4203 37.0847 14.4459C36.6638 14.5243 36.3347 14.8324 36.212 15.2558C36.1843 15.3515 36.1919 15.4509 36.2152 15.5478C36.3917 16.2832 37.0755 19.6458 35.3207 21.4559C33.5303 23.3027 32.7748 22.9189 31.7816 23.4836C31.5739 23.6017 31.3249 23.6413 31.1031 23.5523L25.7654 21.4082C25.3272 21.2489 24.8391 21.3559 24.5237 21.7015C24.4011 21.8357 24.2596 21.9607 24.0858 22.0139C20.3413 23.1602 19.3301 24.8545 19.7863 29.6232C19.7999 29.7649 19.7646 29.9081 19.7166 30.0422C19.5532 30.499 19.679 31.0065 20.0941 31.2971L24.611 34.8127C24.8084 34.9664 24.9047 35.2156 24.8685 35.4631C24.7804 36.0646 24.7169 36.6992 24.7169 37.302C24.7169 37.9046 24.7486 38.5389 24.825 39.1402C24.8565 39.3884 24.7607 39.6376 24.5634 39.7912L20.0465 43.3068C19.6936 43.5813 19.5504 44.0654 19.6567 44.4938C19.7008 44.6718 19.7295 44.8613 19.6783 45.0375C18.4076 49.4081 19.2068 51.2135 24.0533 52.5928C24.2316 52.6436 24.378 52.7712 24.5049 52.9064C24.8205 53.2425 25.3057 53.3344 25.7415 53.1957L31.078 51.0522C31.3004 50.9629 31.5529 50.9977 31.7464 51.1392C32.6714 51.8154 33.6422 52.405 34.6912 52.8861C35.0256 53.0394 35.2012 53.4233 35.1234 53.7828C34.8902 54.8602 34.661 57.1319 36.1547 59.2006C37.8452 61.5417 37.134 60.6829 37.1565 60.3123C37.1653 60.1687 37.3629 60.2247 37.48 60.3082C41.1099 62.895 43.0836 62.76 46.2615 60.3227C46.3824 60.23 46.5743 60.1905 46.5703 60.3428C46.5572 60.8486 45.6359 62.168 47.5686 59.2006C49.1342 56.7969 48.9698 54.868 48.7026 53.8766C48.595 53.4775 48.7684 53.0101 49.143 52.8355C50.1522 52.3651 51.0963 51.7949 51.9752 51.1442C52.1698 51.0002 52.4248 50.9636 52.6494 51.0539L57.9818 53.1957C58.4245 53.3567 58.9182 53.2458 59.2332 52.8917C59.3483 52.7623 59.4812 52.6413 59.6448 52.5848C63.5075 51.2501 64.3759 49.4535 63.982 44.9701C63.9701 44.8348 64.0025 44.6983 64.048 44.5703C64.2156 44.0977 64.0756 43.6006 63.6769 43.3068L59.193 39.7822ZM41.8736 45.8803C37.1555 45.8803 33.2952 42.0201 33.2952 37.302C33.2952 32.5839 37.1555 28.7236 41.8736 28.7236C46.5917 28.7236 50.4519 32.5839 50.4519 37.302C50.4519 42.0201 46.5917 45.8803 41.8736 45.8803Z" fill="white"/>
</g>
<defs>
<filter id="filter0_d_80_762" x="15.3928" y="8.46764" width="52.4797" height="57.1392" filterUnits="userSpaceOnUse" color-interpolation-filters="sRGB">
<feFlood flood-opacity="0" result="BackgroundImageFix"/>
<feColorMatrix in="SourceAlpha" type="matrix" values="0 0 0 0 0 0 0 0 0 0 0 0 0 0 0 0 0 0 127 0" result="hardAlpha"/>
<feOffset dy="-0.340709"/>
<feGaussianBlur stdDeviation="1.8739"/>
<feComposite in2="hardAlpha" operator="out"/>
<feColorMatrix type="matrix" values="0 0 0 0 1 0 0 0 0 1 0 0 0 0 1 0 0 0 1 0"/>
<feBlend mode="normal" in2="BackgroundImageFix" result="effect1_dropShadow_80_762"/>
<feBlend mode="normal" in="SourceGraphic" in2="effect1_dropShadow_80_762" result="shape"/>
</filter>
<linearGradient id="paint0_linear_80_762" x1="41.285" y1="6.47314" x2="41.285" y2="71.5486" gradientUnits="userSpaceOnUse">
<stop offset="0.359375" stop-color="#0058F8"/>
<stop offset="0.921875" stop-color="#26B6D6" stop-opacity="0.78"/>
</linearGradient>
<linearGradient id="paint1_linear_80_762" x1="41.455" y1="6.47314" x2="41.455" y2="37.4777" gradientUnits="userSpaceOnUse">
<stop stop-color="#E5ECF8" stop-opacity="0.25"/>
</linearGradient>
</defs>
</svg>
