<svg width="100" height="31" viewBox="0 0 100 31" fill="none" xmlns="http://www.w3.org/2000/svg">
<path d="M6.77131 2.36364V30H0.0916194V2.36364H6.77131ZM17.5634 18.179V30H10.9647V9.27273H17.2395V13.0781H17.4689C17.9277 11.8097 18.7104 10.8156 19.8169 10.0959C20.9235 9.36719 22.2414 9.00284 23.7708 9.00284C25.2282 9.00284 26.4921 9.3312 27.5627 9.98792C28.6422 10.6357 29.4789 11.5443 30.0726 12.7138C30.6754 13.8743 30.9722 15.2327 30.9632 16.7891V30H24.3645V18.0845C24.3735 16.933 24.0811 16.0334 23.4874 15.3857C22.9026 14.7379 22.0885 14.4141 21.0449 14.4141C20.3522 14.4141 19.7405 14.567 19.2097 14.8729C18.6879 15.1697 18.2831 15.5971 17.9952 16.1548C17.7163 16.7126 17.5724 17.3873 17.5634 18.179ZM35.0487 30V9.27273H41.6474V30H35.0487ZM38.3548 6.85724C37.4281 6.85724 36.632 6.55137 35.9663 5.93963C35.3005 5.31889 34.9677 4.57221 34.9677 3.69957C34.9677 2.83594 35.3005 2.09825 35.9663 1.48651C36.632 0.865766 37.4281 0.555396 38.3548 0.555396C39.2904 0.555396 40.0865 0.865766 40.7433 1.48651C41.409 2.09825 41.7418 2.83594 41.7418 3.69957C41.7418 4.57221 41.409 5.31889 40.7433 5.93963C40.0865 6.55137 39.2904 6.85724 38.3548 6.85724ZM55.5229 30.3913C53.3368 30.3913 51.4611 29.9415 49.8958 29.0419C48.3394 28.1423 47.1429 26.8918 46.3063 25.2905C45.4696 23.6802 45.0513 21.8179 45.0513 19.7038C45.0513 17.5807 45.4696 15.7185 46.3063 14.1172C47.1519 12.5069 48.3529 11.2519 49.9093 10.3523C51.4746 9.45265 53.3413 9.00284 55.5094 9.00284C57.4256 9.00284 59.0944 9.3492 60.5158 10.0419C61.9462 10.7346 63.0617 11.7152 63.8624 12.9837C64.6721 14.2431 65.0994 15.723 65.1444 17.4233H58.9775C58.8515 16.3617 58.4917 15.5296 57.8979 14.9268C57.3132 14.3241 56.5485 14.0227 55.6039 14.0227C54.8392 14.0227 54.169 14.2386 53.5932 14.6705C53.0175 15.0933 52.5676 15.723 52.2438 16.5597C51.9289 17.3873 51.7715 18.4129 51.7715 19.6364C51.7715 20.8598 51.9289 21.8944 52.2438 22.7401C52.5676 23.5767 53.0175 24.2109 53.5932 24.6428C54.169 25.0656 54.8392 25.277 55.6039 25.277C56.2156 25.277 56.7554 25.1465 57.2232 24.8857C57.7 24.6248 58.0913 24.2424 58.3972 23.7386C58.7031 23.2259 58.8965 22.6051 58.9775 21.8764H65.1444C65.0814 23.5857 64.6541 25.0791 63.8624 26.3565C63.0797 27.634 61.9777 28.6281 60.5563 29.3388C59.1439 30.0405 57.4661 30.3913 55.5229 30.3913ZM68.5213 30V9.27273H75.12V30H68.5213ZM71.8274 6.85724C70.9008 6.85724 70.1046 6.55137 69.4389 5.93963C68.7732 5.31889 68.4403 4.57221 68.4403 3.69957C68.4403 2.83594 68.7732 2.09825 69.4389 1.48651C70.1046 0.865766 70.9008 0.555396 71.8274 0.555396C72.763 0.555396 73.5592 0.865766 74.2159 1.48651C74.8816 2.09825 75.2145 2.83594 75.2145 3.69957C75.2145 4.57221 74.8816 5.31889 74.2159 5.93963C73.5592 6.55137 72.763 6.85724 71.8274 6.85724ZM88.9956 30.3913C86.8185 30.3913 84.9473 29.946 83.3819 29.0554C81.8256 28.1558 80.6246 26.9053 79.7789 25.304C78.9423 23.6937 78.524 21.8269 78.524 19.7038C78.524 17.5717 78.9423 15.705 79.7789 14.1037C80.6246 12.4934 81.8256 11.2429 83.3819 10.3523C84.9473 9.45265 86.8185 9.00284 88.9956 9.00284C91.1726 9.00284 93.0394 9.45265 94.5957 10.3523C96.161 11.2429 97.362 12.4934 98.1987 14.1037C99.0443 15.705 99.4672 17.5717 99.4672 19.7038C99.4672 21.8269 99.0443 23.6937 98.1987 25.304C97.362 26.9053 96.161 28.1558 94.5957 29.0554C93.0394 29.946 91.1726 30.3913 88.9956 30.3913ZM89.036 25.4119C89.8277 25.4119 90.4979 25.169 91.0467 24.6832C91.5955 24.1974 92.0138 23.5227 92.3017 22.6591C92.5985 21.7955 92.747 20.7969 92.747 19.6634C92.747 18.5118 92.5985 17.5043 92.3017 16.6406C92.0138 15.777 91.5955 15.1023 91.0467 14.6165C90.4979 14.1307 89.8277 13.8878 89.036 13.8878C88.2174 13.8878 87.5247 14.1307 86.9579 14.6165C86.4002 15.1023 85.9728 15.777 85.676 16.6406C85.3881 17.5043 85.2441 18.5118 85.2441 19.6634C85.2441 20.7969 85.3881 21.7955 85.676 22.6591C85.9728 23.5227 86.4002 24.1974 86.9579 24.6832C87.5247 25.169 88.2174 25.4119 89.036 25.4119Z" fill="black"/>
</svg>
