<svg width="64" height="60" viewBox="0 0 64 60" fill="none" xmlns="http://www.w3.org/2000/svg">
<path d="M2.44534 10.3202C4.76023 5.01264 33.0834 -1.10715 55.2864 0.171446C58.464 0.354435 61.0446 2.7281 61.562 5.86865C64.518 23.8125 63.8642 43.5449 60.5838 52.2349C56.9807 61.7798 6.38433 62.6789 2.44534 52.2349C-1.49366 41.7909 -0.0585275 16.061 2.44534 10.3202Z" fill="#E5ECF8"/>
<path fill-rule="evenodd" clip-rule="evenodd" d="M0.00446146 31.1898C-0.0618984 39.1432 0.605479 47.3564 2.44534 52.2347C6.38433 62.6787 56.9807 61.7796 60.5838 52.2347C62.5044 47.1469 63.5247 38.2739 63.4472 28.1909C63.3756 37.3882 62.3684 45.3833 60.5838 50.1107C56.9807 59.6556 6.38433 60.5546 2.44534 50.1107C0.768981 45.6659 0.0659764 38.4526 0.00446146 31.1898Z" fill="#7F9AC9"/>
<g style="mix-blend-mode:multiply">
<path d="M2.80071 52.8234C-1.12774 44.1999 5.79102 49.9047 5.79102 49.9047C27.5164 60.2581 59.4992 57.2015 59.4992 37.1685C59.4992 37.1685 63.0172 45.1076 59.4992 53.8848C55.9813 62.662 7.02231 61.7123 2.80071 52.8234Z" fill="#B5CEFC"/>
</g>
<path d="M5.63049 13.8051C7.67428 9.34172 32.4658 4.20163 52.1669 5.16118C55.3342 5.31544 57.9273 7.65895 58.4448 10.7874C60.9304 25.8131 60.3192 42.1319 57.4443 49.386C54.2331 57.4886 9.14097 58.2518 5.63049 49.386C2.12 40.5203 3.39901 18.6784 5.63049 13.8051Z" fill="url(#paint0_linear_80_744)"/>
<path d="M52.1693 5.16115C32.4705 4.20174 7.68229 9.34177 5.63875 13.8051C3.42644 18.6371 9.64172 23.2711 14.9373 22.8252C24.6683 22.0058 35.8154 23.0354 39.8419 24.2922C40.9193 24.6285 42.1533 24.8779 43.4747 25.0857C49.9179 26.0989 59.6333 18.4623 58.643 12.0155C58.58 11.6055 58.5148 11.1963 58.4473 10.788C57.9298 7.6595 55.3366 5.31541 52.1693 5.16115Z" fill="url(#paint1_linear_80_744)"/>
<g filter="url(#filter0_d_80_744)">
<circle cx="9.42474" cy="16.5927" r="1.99115" fill="white"/>
</g>
<g filter="url(#filter1_d_80_744)">
<circle cx="7.4329" cy="21.2391" r="1.32743" fill="white"/>
</g>
<g filter="url(#filter2_d_80_744)">
<circle cx="14.0706" cy="13.2742" r="1.32743" fill="white"/>
</g>
<g filter="url(#filter3_d_80_744)">
<circle cx="53.6282" cy="9.02616" r="1.32743" fill="white"/>
</g>
<path fill-rule="evenodd" clip-rule="evenodd" d="M3.53794 30.418C3.40187 37.5031 3.96762 45.0186 5.69269 49.3857C9.19483 58.2514 54.1798 57.4883 57.3833 49.3857C59.1638 44.8822 60.074 36.8853 59.9149 27.873C59.781 35.2255 58.8965 41.5759 57.3833 45.4032C54.1798 53.5058 9.19483 54.269 5.69269 45.4032C4.28908 41.8499 3.65297 36.2123 3.53794 30.418Z" fill="#0E357B"/>
<path fill-rule="evenodd" clip-rule="evenodd" d="M38.7244 15.7963C42.212 18.3186 39.7126 18.2206 38.8009 19.1746C38.8009 19.1746 30.2487 26.7594 29.867 32.4284C29.4854 38.0973 38.7056 44.1856 38.7056 44.1856C39.6694 45.0869 42.3448 43.2744 38.8187 47.5628C35.2926 51.8511 36.4053 48.5773 35.4415 47.6759L21.1052 34.2688C20.6391 33.8329 20.1766 33.5842 20.1768 32.5907C20.1769 31.5972 20.569 31.3341 21.0099 30.8728L35.3462 15.8728C36.258 14.9188 35.2368 13.2741 38.7244 15.7963Z" fill="white"/>
<g filter="url(#filter4_d_80_744)">
<path d="M56.1703 42.546C53.6185 46.5178 51.036 47.4329 49.3276 47.0119C47.6192 46.5908 51.6638 44.7553 52.8813 42.0255C54.0987 39.2957 54.3427 35.3966 56.0511 35.8176C57.7595 36.2386 58.722 38.5742 56.1703 42.546Z" fill="white"/>
</g>
<defs>
<filter id="filter0_d_80_744" x="4.51324" y="11.4157" width="9.82313" height="9.82313" filterUnits="userSpaceOnUse" color-interpolation-filters="sRGB">
<feFlood flood-opacity="0" result="BackgroundImageFix"/>
<feColorMatrix in="SourceAlpha" type="matrix" values="0 0 0 0 0 0 0 0 0 0 0 0 0 0 0 0 0 0 127 0" result="hardAlpha"/>
<feOffset dy="-0.265487"/>
<feGaussianBlur stdDeviation="1.46018"/>
<feComposite in2="hardAlpha" operator="out"/>
<feColorMatrix type="matrix" values="0 0 0 0 1 0 0 0 0 1 0 0 0 0 1 0 0 0 1 0"/>
<feBlend mode="normal" in2="BackgroundImageFix" result="effect1_dropShadow_80_744"/>
<feBlend mode="normal" in="SourceGraphic" in2="effect1_dropShadow_80_744" result="shape"/>
</filter>
<filter id="filter1_d_80_744" x="3.18511" y="16.7258" width="8.49549" height="8.49549" filterUnits="userSpaceOnUse" color-interpolation-filters="sRGB">
<feFlood flood-opacity="0" result="BackgroundImageFix"/>
<feColorMatrix in="SourceAlpha" type="matrix" values="0 0 0 0 0 0 0 0 0 0 0 0 0 0 0 0 0 0 127 0" result="hardAlpha"/>
<feOffset dy="-0.265487"/>
<feGaussianBlur stdDeviation="1.46018"/>
<feComposite in2="hardAlpha" operator="out"/>
<feColorMatrix type="matrix" values="0 0 0 0 1 0 0 0 0 1 0 0 0 0 1 0 0 0 1 0"/>
<feBlend mode="normal" in2="BackgroundImageFix" result="effect1_dropShadow_80_744"/>
<feBlend mode="normal" in="SourceGraphic" in2="effect1_dropShadow_80_744" result="shape"/>
</filter>
<filter id="filter2_d_80_744" x="9.82281" y="8.76094" width="8.49549" height="8.49549" filterUnits="userSpaceOnUse" color-interpolation-filters="sRGB">
<feFlood flood-opacity="0" result="BackgroundImageFix"/>
<feColorMatrix in="SourceAlpha" type="matrix" values="0 0 0 0 0 0 0 0 0 0 0 0 0 0 0 0 0 0 127 0" result="hardAlpha"/>
<feOffset dy="-0.265487"/>
<feGaussianBlur stdDeviation="1.46018"/>
<feComposite in2="hardAlpha" operator="out"/>
<feColorMatrix type="matrix" values="0 0 0 0 1 0 0 0 0 1 0 0 0 0 1 0 0 0 1 0"/>
<feBlend mode="normal" in2="BackgroundImageFix" result="effect1_dropShadow_80_744"/>
<feBlend mode="normal" in="SourceGraphic" in2="effect1_dropShadow_80_744" result="shape"/>
</filter>
<filter id="filter3_d_80_744" x="49.3804" y="4.51289" width="8.49549" height="8.49549" filterUnits="userSpaceOnUse" color-interpolation-filters="sRGB">
<feFlood flood-opacity="0" result="BackgroundImageFix"/>
<feColorMatrix in="SourceAlpha" type="matrix" values="0 0 0 0 0 0 0 0 0 0 0 0 0 0 0 0 0 0 127 0" result="hardAlpha"/>
<feOffset dy="-0.265487"/>
<feGaussianBlur stdDeviation="1.46018"/>
<feComposite in2="hardAlpha" operator="out"/>
<feColorMatrix type="matrix" values="0 0 0 0 1 0 0 0 0 1 0 0 0 0 1 0 0 0 1 0"/>
<feBlend mode="normal" in2="BackgroundImageFix" result="effect1_dropShadow_80_744"/>
<feBlend mode="normal" in="SourceGraphic" in2="effect1_dropShadow_80_744" result="shape"/>
</filter>
<filter id="filter4_d_80_744" x="45.9927" y="32.6003" width="14.661" height="17.16" filterUnits="userSpaceOnUse" color-interpolation-filters="sRGB">
<feFlood flood-opacity="0" result="BackgroundImageFix"/>
<feColorMatrix in="SourceAlpha" type="matrix" values="0 0 0 0 0 0 0 0 0 0 0 0 0 0 0 0 0 0 127 0" result="hardAlpha"/>
<feOffset dy="-0.265487"/>
<feGaussianBlur stdDeviation="1.46018"/>
<feComposite in2="hardAlpha" operator="out"/>
<feColorMatrix type="matrix" values="0 0 0 0 1 0 0 0 0 1 0 0 0 0 1 0 0 0 1 0"/>
<feBlend mode="normal" in2="BackgroundImageFix" result="effect1_dropShadow_80_744"/>
<feBlend mode="normal" in="SourceGraphic" in2="effect1_dropShadow_80_744" result="shape"/>
</filter>
<linearGradient id="paint0_linear_80_744" x1="31.7255" y1="5.04443" x2="31.7255" y2="55.7524" gradientUnits="userSpaceOnUse">
<stop offset="0.359375" stop-color="#0058F8"/>
<stop offset="0.921875" stop-color="#26B6D6" stop-opacity="0.78"/>
</linearGradient>
<linearGradient id="paint1_linear_80_744" x1="31.8584" y1="5.04443" x2="31.8584" y2="29.2037" gradientUnits="userSpaceOnUse">
<stop stop-color="#E5ECF8" stop-opacity="0.25"/>
</linearGradient>
</defs>
</svg>
