<svg width="180" height="24" viewBox="0 0 180 24" fill="none" xmlns="http://www.w3.org/2000/svg">
<path d="M9.26136 10.5341L7.75568 10.9602C7.66099 10.7093 7.52131 10.4654 7.33665 10.2287C7.15672 9.98722 6.91051 9.78835 6.59801 9.6321C6.28551 9.47585 5.88542 9.39773 5.39773 9.39773C4.73011 9.39773 4.17377 9.55161 3.72869 9.85938C3.28835 10.1624 3.06818 10.5483 3.06818 11.017C3.06818 11.4337 3.2197 11.7628 3.52273 12.0043C3.82576 12.2457 4.29924 12.447 4.94318 12.608L6.5625 13.0057C7.53788 13.2424 8.26468 13.6046 8.7429 14.0923C9.22112 14.5753 9.46023 15.1979 9.46023 15.9602C9.46023 16.5852 9.2803 17.1439 8.92045 17.6364C8.56534 18.1288 8.06818 18.517 7.42898 18.8011C6.78977 19.0852 6.0464 19.2273 5.19886 19.2273C4.08617 19.2273 3.16525 18.9858 2.43608 18.5028C1.70691 18.0199 1.24527 17.3144 1.05114 16.3864L2.64205 15.9886C2.79356 16.5758 3.08002 17.0161 3.50142 17.3097C3.92756 17.6032 4.4839 17.75 5.17045 17.75C5.9517 17.75 6.57197 17.5843 7.03125 17.2528C7.49527 16.9167 7.72727 16.5142 7.72727 16.0455C7.72727 15.6667 7.5947 15.3494 7.32955 15.0938C7.06439 14.8333 6.6572 14.6392 6.10795 14.5114L4.28977 14.0852C3.29072 13.8485 2.55682 13.4815 2.08807 12.9844C1.62405 12.4825 1.39205 11.8551 1.39205 11.1023C1.39205 10.4867 1.56487 9.94223 1.91051 9.46875C2.26089 8.99527 2.73674 8.62358 3.33807 8.35369C3.94413 8.08381 4.63068 7.94886 5.39773 7.94886C6.47727 7.94886 7.32481 8.18561 7.94034 8.65909C8.56061 9.13258 9.00095 9.75758 9.26136 10.5341ZM11.9833 19V8.09091H13.6594V19H11.9833ZM12.8356 6.27273C12.5089 6.27273 12.2272 6.16146 11.9904 5.93892C11.7584 5.71638 11.6424 5.44886 11.6424 5.13636C11.6424 4.82386 11.7584 4.55634 11.9904 4.33381C12.2272 4.11127 12.5089 4 12.8356 4C13.1623 4 13.4416 4.11127 13.6737 4.33381C13.9104 4.55634 14.0288 4.82386 14.0288 5.13636C14.0288 5.44886 13.9104 5.71638 13.6737 5.93892C13.4416 6.16146 13.1623 6.27273 12.8356 6.27273ZM21.1328 23.3182C20.3232 23.3182 19.6271 23.214 19.0447 23.0057C18.4624 22.8021 17.977 22.5322 17.5888 22.196C17.2053 21.8646 16.8999 21.5095 16.6726 21.1307L18.0078 20.1932C18.1593 20.392 18.3511 20.6193 18.5831 20.875C18.8151 21.1354 19.1323 21.3603 19.5348 21.5497C19.942 21.7438 20.4747 21.8409 21.1328 21.8409C22.0135 21.8409 22.7403 21.6278 23.3132 21.2017C23.8861 20.7756 24.1726 20.108 24.1726 19.1989V16.983H24.0305C23.9074 17.1818 23.7322 17.428 23.505 17.7216C23.2824 18.0104 22.9605 18.2685 22.5391 18.4957C22.1224 18.7183 21.5589 18.8295 20.8487 18.8295C19.968 18.8295 19.1773 18.6212 18.4766 18.2045C17.7805 17.7879 17.2289 17.1818 16.8217 16.3864C16.4193 15.5909 16.218 14.625 16.218 13.4886C16.218 12.3712 16.4145 11.3982 16.8075 10.5696C17.2005 9.73627 17.7474 9.09233 18.4482 8.63778C19.1489 8.1785 19.9586 7.94886 20.8771 7.94886C21.5874 7.94886 22.1508 8.06723 22.5675 8.30398C22.9889 8.53598 23.3108 8.80114 23.5334 9.09943C23.7607 9.39299 23.9358 9.63447 24.0589 9.82386H24.2294V8.09091H25.8487V19.3125C25.8487 20.25 25.6357 21.0123 25.2095 21.5994C24.7881 22.1913 24.2199 22.6245 23.505 22.8991C22.7947 23.1785 22.004 23.3182 21.1328 23.3182ZM21.076 17.3239C21.7483 17.3239 22.3165 17.17 22.7805 16.8622C23.2446 16.5545 23.5973 16.1117 23.8388 15.5341C24.0803 14.9564 24.201 14.2652 24.201 13.4602C24.201 12.6742 24.0826 11.9806 23.8459 11.3793C23.6091 10.7779 23.2588 10.3068 22.7947 9.96591C22.3307 9.625 21.7578 9.45455 21.076 9.45455C20.3658 9.45455 19.7739 9.63447 19.3004 9.99432C18.8317 10.3542 18.4789 10.8371 18.2422 11.4432C18.0102 12.0492 17.8942 12.7216 17.8942 13.4602C17.8942 14.2178 18.0125 14.8878 18.2493 15.4702C18.4908 16.0478 18.8459 16.5024 19.3146 16.8338C19.7881 17.1605 20.3752 17.3239 21.076 17.3239ZM35.7919 14.5398V8.09091H37.468V19H35.7919V17.1534H35.6783C35.4226 17.7074 35.0249 18.1785 34.4851 18.5668C33.9453 18.9503 33.2635 19.142 32.4396 19.142C31.7578 19.142 31.1518 18.9929 30.6214 18.6946C30.0911 18.3916 29.6745 17.937 29.3714 17.331C29.0684 16.7202 28.9169 15.9508 28.9169 15.0227V8.09091H30.593V14.9091C30.593 15.7045 30.8156 16.339 31.2607 16.8125C31.7105 17.286 32.2834 17.5227 32.9794 17.5227C33.3961 17.5227 33.8198 17.4162 34.2507 17.2031C34.6863 16.9901 35.0509 16.6634 35.3445 16.223C35.6428 15.7827 35.7919 15.2216 35.7919 14.5398ZM40.538 19V8.09091H42.2141V19H40.538ZM41.3903 6.27273C41.0636 6.27273 40.7818 6.16146 40.5451 5.93892C40.3131 5.71638 40.1971 5.44886 40.1971 5.13636C40.1971 4.82386 40.3131 4.55634 40.5451 4.33381C40.7818 4.11127 41.0636 4 41.3903 4C41.717 4 41.9963 4.11127 42.2283 4.33381C42.4651 4.55634 42.5835 4.82386 42.5835 5.13636C42.5835 5.44886 42.4651 5.71638 42.2283 5.93892C41.9963 6.16146 41.717 6.27273 41.3903 6.27273ZM49.858 19.2273C48.8068 19.2273 47.9001 18.9953 47.1378 18.5312C46.3802 18.0625 45.7955 17.4091 45.3835 16.571C44.9763 15.7282 44.7727 14.7481 44.7727 13.6307C44.7727 12.5133 44.9763 11.5284 45.3835 10.6761C45.7955 9.81913 46.3684 9.15152 47.1023 8.6733C47.8409 8.19034 48.7027 7.94886 49.6875 7.94886C50.2557 7.94886 50.8168 8.04356 51.3707 8.23295C51.9247 8.42235 52.429 8.73011 52.8835 9.15625C53.3381 9.57765 53.7003 10.1364 53.9702 10.8324C54.2401 11.5284 54.375 12.3854 54.375 13.4034V14.1136H45.9659V12.6648H52.6705C52.6705 12.0492 52.5473 11.5 52.3011 11.017C52.0597 10.5341 51.714 10.1529 51.2642 9.87358C50.8191 9.59422 50.2936 9.45455 49.6875 9.45455C49.0199 9.45455 48.4422 9.62026 47.9545 9.9517C47.4716 10.2784 47.0999 10.7045 46.8395 11.2301C46.5791 11.7557 46.4489 12.3191 46.4489 12.9205V13.8864C46.4489 14.7102 46.5909 15.4086 46.875 15.9815C47.1638 16.5497 47.5639 16.983 48.0753 17.2812C48.5866 17.5748 49.1809 17.7216 49.858 17.7216C50.2983 17.7216 50.696 17.66 51.0511 17.5369C51.411 17.4091 51.7211 17.2197 51.9815 16.9688C52.242 16.7131 52.4432 16.3958 52.5852 16.017L54.2045 16.4716C54.0341 17.0208 53.7476 17.5038 53.3452 17.9205C52.9427 18.3324 52.4455 18.6544 51.8537 18.8864C51.2618 19.1136 50.5966 19.2273 49.858 19.2273ZM58.6009 12.4375V19H56.9247V8.09091H58.544V9.79545H58.6861C58.9418 9.24148 59.33 8.7964 59.8509 8.46023C60.3717 8.11932 61.044 7.94886 61.8679 7.94886C62.6065 7.94886 63.2528 8.10038 63.8068 8.40341C64.3608 8.7017 64.7917 9.15625 65.0994 9.76705C65.4072 10.3731 65.5611 11.1402 65.5611 12.0682V19H63.8849V12.1818C63.8849 11.3248 63.6624 10.6572 63.2173 10.179C62.7723 9.69602 62.1615 9.45455 61.3849 9.45455C60.8499 9.45455 60.3717 9.57055 59.9503 9.80256C59.5336 10.0346 59.2045 10.3731 58.9631 10.8182C58.7216 11.2633 58.6009 11.803 58.6009 12.4375ZM73.3683 8.09091V9.51136H67.7148V8.09091H73.3683ZM69.3626 5.47727H71.0387V15.875C71.0387 16.3485 71.1074 16.7036 71.2447 16.9403C71.3867 17.1723 71.5666 17.3286 71.7844 17.4091C72.007 17.4848 72.2414 17.5227 72.4876 17.5227C72.6722 17.5227 72.8237 17.5133 72.9421 17.4943C73.0605 17.4706 73.1552 17.4517 73.2262 17.4375L73.5671 18.9432C73.4535 18.9858 73.2949 19.0284 73.0913 19.071C72.8877 19.1184 72.6296 19.142 72.3171 19.142C71.8436 19.142 71.3796 19.0402 70.9251 18.8366C70.4753 18.633 70.1012 18.3229 69.8029 17.9062C69.5094 17.4896 69.3626 16.964 69.3626 16.3295V5.47727ZM80.3462 19.2273C79.2951 19.2273 78.3884 18.9953 77.6261 18.5312C76.8685 18.0625 76.2837 17.4091 75.8718 16.571C75.4646 15.7282 75.261 14.7481 75.261 13.6307C75.261 12.5133 75.4646 11.5284 75.8718 10.6761C76.2837 9.81913 76.8567 9.15152 77.5906 8.6733C78.3292 8.19034 79.1909 7.94886 80.1758 7.94886C80.744 7.94886 81.305 8.04356 81.859 8.23295C82.413 8.42235 82.9173 8.73011 83.3718 9.15625C83.8263 9.57765 84.1886 10.1364 84.4585 10.8324C84.7283 11.5284 84.8633 12.3854 84.8633 13.4034V14.1136H76.4542V12.6648H83.1587C83.1587 12.0492 83.0356 11.5 82.7894 11.017C82.5479 10.5341 82.2023 10.1529 81.7525 9.87358C81.3074 9.59422 80.7818 9.45455 80.1758 9.45455C79.5082 9.45455 78.9305 9.62026 78.4428 9.9517C77.9599 10.2784 77.5882 10.7045 77.3278 11.2301C77.0674 11.7557 76.9371 12.3191 76.9371 12.9205V13.8864C76.9371 14.7102 77.0792 15.4086 77.3633 15.9815C77.6521 16.5497 78.0522 16.983 78.5636 17.2812C79.0749 17.5748 79.6692 17.7216 80.3462 17.7216C80.7866 17.7216 81.1843 17.66 81.5394 17.5369C81.8993 17.4091 82.2094 17.2197 82.4698 16.9688C82.7302 16.7131 82.9315 16.3958 83.0735 16.017L84.6928 16.4716C84.5224 17.0208 84.2359 17.5038 83.8335 17.9205C83.431 18.3324 82.9338 18.6544 82.342 18.8864C81.7501 19.1136 81.0849 19.2273 80.3462 19.2273Z" fill="black"/>
<path d="M179.061 13.0607C179.646 12.4749 179.646 11.5251 179.061 10.9393L169.515 1.3934C168.929 0.807611 167.979 0.807611 167.393 1.3934C166.808 1.97919 166.808 2.92893 167.393 3.51472L175.879 12L167.393 20.4853C166.808 21.0711 166.808 22.0208 167.393 22.6066C167.979 23.1924 168.929 23.1924 169.515 22.6066L179.061 13.0607ZM105 13.5H178V10.5H105V13.5Z" fill="black"/>
</svg>
