<svg width="185" height="89" viewBox="0 0 185 89" fill="none" xmlns="http://www.w3.org/2000/svg">
<path d="M7.12967 15.3763C14.1806 7.11513 103.99 -2.46682 169.756 0.577915C173.972 0.773086 177.706 3.41208 179.052 7.4117C188.171 34.496 186.363 64.6632 176.639 77.8261C166.134 92.0473 18.6143 93.3869 7.12967 77.8261C-4.35494 62.2654 -0.170644 23.9297 7.12967 15.3763Z" fill="#E5ECF8"/>
<g style="mix-blend-mode:multiply">
<path d="M8.49085 78.3126C-2.87127 65.4709 17.1396 73.9662 17.1396 73.9662C79.975 89.3839 172.478 84.8322 172.478 55C172.478 55 182.653 66.8225 172.478 79.8931C162.303 92.9637 20.7008 91.5494 8.49085 78.3126Z" fill="#B5CEFC"/>
</g>
<path d="M17.2818 20.1303C23.4677 13.106 101.949 4.96341 159.825 7.46076C164.005 7.64111 167.722 10.2284 169.055 14.1938C176.753 37.0962 175.094 62.3579 166.634 73.4583C157.378 85.6022 27.4007 86.7461 17.2818 73.4583C7.16294 60.1704 10.8496 27.4343 17.2818 20.1303Z" fill="#004CD5"/>
<path d="M159.821 7.46044C101.672 4.97011 22.7825 13.0685 16.5661 20.0544C16.1087 20.5684 15.6652 21.2091 15.2393 21.9607C11.4904 28.5776 18.8449 35.4055 26.4135 34.661C57.1132 31.6412 101.496 33.4127 115.621 35.6813C126.624 37.4486 143.273 37.6052 156.746 39.1124C164.872 40.0213 173.721 33.3814 172.076 25.3725C171.305 21.6194 170.297 17.8577 169.04 14.1579C167.699 10.2084 163.988 7.63891 159.821 7.46044Z" fill="url(#paint0_linear_81_1347)"/>
<path fill-rule="evenodd" clip-rule="evenodd" d="M11.056 45.7742C10.6628 56.2814 12.2975 67.4268 17.2818 73.9032C27.4007 87.0511 157.378 85.9193 166.634 73.9032C171.778 67.2246 174.408 55.3652 173.948 42C173.562 52.9036 171.006 62.3212 166.634 67.997C157.378 80.0131 27.4007 81.1449 17.2818 67.997C13.2263 62.7275 11.3884 54.3669 11.056 45.7742Z" fill="#0E357B"/>
<path fill-rule="evenodd" clip-rule="evenodd" d="M0.0130037 46.4473C-0.180444 58.2421 1.76539 70.4221 7.12967 77.6565C18.6143 93.1448 166.134 91.8116 176.639 77.6565C182.239 70.1113 185.214 56.953 184.988 42C184.779 55.6396 181.842 67.4964 176.639 74.5071C166.134 88.6622 18.6143 89.9954 7.12967 74.5071C2.24202 67.9155 0.192331 57.2181 0.0130037 46.4473Z" fill="#7F9AC9"/>
<path d="M31.471 50.8534V40.201H29.3465C29.0074 40.201 28.768 39.7721 28.6284 38.9143C28.5685 38.4954 28.5386 38.0665 28.5386 37.6277C28.5386 37.1888 28.5685 36.7599 28.6284 36.341C28.768 35.4832 29.0074 35.0543 29.3465 35.0543H39.4004C39.7395 35.0543 39.9689 35.4832 40.0886 36.341C40.1684 36.7599 40.2083 37.1888 40.2083 37.6277C40.2083 38.0665 40.1684 38.4954 40.0886 38.9143C39.9689 39.7721 39.7395 40.201 39.4004 40.201H37.3956V50.8534H39.4902C39.8293 50.8534 40.0687 51.2822 40.2083 52.14C40.2881 52.5589 40.328 52.9878 40.328 53.4267C40.328 53.8655 40.2881 54.2944 40.2083 54.7133C40.0687 55.5711 39.8293 56 39.4902 56H29.4064C29.0672 56 28.8378 55.5711 28.7181 54.7133C28.6383 54.2944 28.5984 53.8655 28.5984 53.4267C28.5984 52.9878 28.6383 52.5589 28.7181 52.14C28.8378 51.2822 29.0672 50.8534 29.4064 50.8534H31.471ZM48.7275 55.9701C48.7275 56.1097 47.8199 56.1795 46.0046 56.1795C44.1893 56.1396 43.2817 56.0598 43.2817 55.9402V46.0059H42.4738C42.1546 46.0059 41.8953 45.8164 41.6958 45.4374C41.5163 45.0384 41.4265 44.5497 41.4265 43.9712C41.4265 41.8168 42.0648 40.7396 43.3415 40.7396C44.2392 40.7396 44.9873 41.0189 45.5857 41.5774C46.1841 42.116 46.4834 42.7344 46.4834 43.4326C46.9023 42.6147 47.4608 41.9664 48.159 41.4877C48.8772 40.9889 49.6053 40.7396 50.3434 40.7396C51.5004 40.7396 52.1985 41.0388 52.4379 41.6373C52.4978 41.7969 52.5277 42.0362 52.5277 42.3554C52.5277 42.6546 52.4279 43.2032 52.2285 44.0011C52.0489 44.7991 51.8594 45.3776 51.6599 45.7366C51.4605 46.0957 51.3408 46.2752 51.3009 46.2752C51.261 46.2752 51.0715 46.2054 50.7323 46.0658C50.4132 45.9062 50.1239 45.8264 49.8646 45.8264C49.1066 45.8264 48.7275 46.4248 48.7275 47.6217V55.9701ZM61.5631 45.1382C61.0045 44.1408 60.7252 43.3329 60.7252 42.7145C60.7252 42.0761 60.8948 41.6672 61.2339 41.4877C62.371 40.9889 63.9269 40.7396 65.9018 40.7396C67.8966 40.7396 69.303 41.2084 70.1209 42.1459C70.9387 43.0636 71.3477 44.43 71.3477 46.2453V50.973H72.365C72.7042 50.973 72.9635 51.1725 73.143 51.5715C73.3425 51.9705 73.4423 52.519 73.4423 53.2172C73.4423 53.9154 73.2627 54.6036 72.9037 55.2819C72.5645 55.9601 72.0957 56.2992 71.4973 56.2992C70.4201 56.2992 69.5523 56.01 68.8941 55.4315C68.5948 55.1921 68.3654 54.9028 68.2058 54.5637C67.2882 55.7207 65.8619 56.2992 63.9269 56.2992C62.4707 56.2992 61.2439 55.7806 60.2465 54.7433C59.2491 53.706 58.7504 52.4791 58.7504 51.0628C58.7504 47.8112 60.6953 46.1855 64.5852 46.1855H66.231V45.8862C66.231 45.3676 66.1412 45.0384 65.9617 44.8988C65.8021 44.7392 65.4131 44.6594 64.7947 44.6594C64.0367 44.6594 62.9595 44.819 61.5631 45.1382ZM63.9569 50.6439C63.9569 51.0828 64.0766 51.4219 64.3159 51.6613C64.5553 51.8807 64.8545 51.9904 65.2136 51.9904C65.5926 51.9904 65.9317 51.8408 66.231 51.5416V49.2375H65.3931C64.4356 49.2375 63.9569 49.7063 63.9569 50.6439ZM80.5818 55.7606C80.5818 55.9402 79.5644 56.0299 77.5297 56.0299C75.9338 56.01 75.1359 55.9302 75.1359 55.7905V35.4134C75.1359 35.1142 76.1034 34.9646 78.0384 34.9646C79.734 35.0244 80.5818 35.1242 80.5818 35.2638V55.7606ZM94.404 55.8205C94.404 55.9801 93.4864 56.0598 91.6512 56.0598C89.8359 56.0598 88.9282 55.99 88.9282 55.8504V41.1585C88.9282 41.0189 89.8359 40.9491 91.6512 40.9491C93.4864 40.9491 94.404 41.0089 94.404 41.1286V55.8205ZM94.404 39.3632C94.404 39.5028 93.4864 39.5726 91.6512 39.5726C89.8359 39.5726 88.9282 39.5128 88.9282 39.3931V35.0843C88.9282 34.8848 89.8359 34.785 91.6512 34.785C93.4864 34.785 94.404 34.8449 94.404 34.9646V39.3632ZM103.364 55.8205C103.364 55.9601 102.646 56.0299 101.21 56.0299C99.2147 55.9701 98.2173 55.8604 98.2173 55.7008V46.0059H97.4393C96.9206 46.0059 96.5815 45.5671 96.4219 44.6893C96.382 44.43 96.3621 44.1707 96.3621 43.9114C96.3621 43.293 96.4818 42.6746 96.7211 42.0562C97.0802 41.1785 97.6388 40.7396 98.3968 40.7396C99.1548 40.7396 99.8331 40.9191 100.432 41.2782C101.03 41.6373 101.429 41.9963 101.628 42.3554C102.885 41.2782 104.381 40.7396 106.117 40.7396C107.852 40.7396 109.109 41.2084 109.887 42.1459C110.665 43.0835 111.054 44.6195 111.054 46.754V55.7307C111.054 55.9701 110.196 56.0898 108.481 56.0898C106.785 56.0898 105.937 55.9701 105.937 55.7307V47.0831C105.937 46.0857 105.588 45.587 104.89 45.587C104.69 45.587 104.411 45.6768 104.052 45.8563C103.693 46.0159 103.464 46.1356 103.364 46.2154V55.8205ZM119.067 55.8205C119.067 55.9801 118.149 56.0598 116.314 56.0598C114.498 56.0598 113.591 55.99 113.591 55.8504V41.1585C113.591 41.0189 114.498 40.9491 116.314 40.9491C118.149 40.9491 119.067 41.0089 119.067 41.1286V55.8205ZM119.067 39.3632C119.067 39.5028 118.149 39.5726 116.314 39.5726C114.498 39.5726 113.591 39.5128 113.591 39.3931V35.0843C113.591 34.8848 114.498 34.785 116.314 34.785C118.149 34.785 119.067 34.8449 119.067 34.9646V39.3632ZM126.68 48.5793C126.68 50.5342 127.418 51.5116 128.894 51.5116C129.852 51.5116 130.65 51.3221 131.288 50.9431C131.587 50.9431 131.827 51.4618 132.006 52.4991C132.206 53.5164 132.305 54.2146 132.305 54.5936C132.305 54.9527 132.256 55.1921 132.156 55.3118C131.099 55.9701 129.652 56.2992 127.817 56.2992C125.982 56.2992 124.416 55.621 123.119 54.2645C121.843 52.8881 121.204 51.0229 121.204 48.669C121.204 46.2952 121.833 44.3801 123.089 42.9239C124.366 41.4677 126.052 40.7396 128.146 40.7396C130.261 40.7396 131.727 41.2483 132.545 42.2656C132.724 42.4851 132.814 42.8142 132.814 43.2531C132.814 43.672 132.734 44.1906 132.575 44.809C132.216 46.0857 131.747 46.8238 131.168 47.0233C131.089 47.0432 130.969 47.0532 130.809 47.0532C130.67 47.0532 130.49 46.9335 130.271 46.6941C129.493 45.9162 128.864 45.5272 128.386 45.5272C127.927 45.5272 127.528 45.7666 127.189 46.2453C126.85 46.7241 126.68 47.502 126.68 48.5793ZM139.93 55.8205C139.93 55.9801 139.013 56.0598 137.178 56.0598C135.362 56.0598 134.455 55.99 134.455 55.8504V41.1585C134.455 41.0189 135.362 40.9491 137.178 40.9491C139.013 40.9491 139.93 41.0089 139.93 41.1286V55.8205ZM139.93 39.3632C139.93 39.5028 139.013 39.5726 137.178 39.5726C135.362 39.5726 134.455 39.5128 134.455 39.3931V35.0843C134.455 34.8848 135.362 34.785 137.178 34.785C139.013 34.785 139.93 34.8449 139.93 34.9646V39.3632ZM143.923 54.2346C142.686 52.8582 142.068 50.9531 142.068 48.5194C142.068 46.0857 142.686 44.1807 143.923 42.8042C145.18 41.4278 146.866 40.7396 148.98 40.7396C151.095 40.7396 152.77 41.4278 154.007 42.8042C155.244 44.1807 155.862 46.0857 155.862 48.5194C155.862 50.9531 155.244 52.8582 154.007 54.2346C152.77 55.611 151.095 56.2992 148.98 56.2992C146.866 56.2992 145.18 55.611 143.923 54.2346ZM148.98 45.7366C147.863 45.7366 147.304 46.6542 147.304 48.4895C147.304 50.3247 147.863 51.2423 148.98 51.2423C150.117 51.2423 150.686 50.3247 150.686 48.4895C150.686 46.6542 150.117 45.7366 148.98 45.7366Z" fill="white"/>
<defs>
<linearGradient id="paint0_linear_81_1347" x1="92.5" y1="7" x2="92.5" y2="43" gradientUnits="userSpaceOnUse">
<stop stop-color="#E5ECF8" stop-opacity="0.45"/>
<stop offset="0.729167" stop-color="#004CD5"/>
</linearGradient>
</defs>
</svg>
