<svg width="239" height="226" viewBox="0 0 239 226" fill="none" xmlns="http://www.w3.org/2000/svg">
<path d="M9.21077 38.8727C17.9302 18.881 124.614 -4.17027 208.245 0.645781C220.214 1.33504 229.935 10.2758 231.884 22.1052C243.018 89.6937 240.555 164.019 228.199 196.751C214.627 232.704 24.0476 236.09 9.21077 196.751C-5.62611 157.412 -0.220454 60.4964 9.21077 38.8727Z" fill="#E5ECF8"/>
<path fill-rule="evenodd" clip-rule="evenodd" d="M0.0168028 117.482C-0.233137 147.44 2.28066 178.376 9.21076 196.751C24.0476 236.09 214.627 232.704 228.199 196.751C235.433 177.587 239.276 144.166 238.985 106.187C238.715 140.83 234.921 170.945 228.199 188.751C214.627 224.704 24.0476 228.09 9.21076 188.751C2.89648 172.009 0.248496 144.839 0.0168028 117.482Z" fill="#7F9AC9"/>
<g style="mix-blend-mode:multiply">
<path d="M10.5462 198.967C-4.25095 166.485 21.8097 187.973 21.8097 187.973C103.642 226.971 224.111 215.458 224.111 140C224.111 140 237.362 169.904 224.111 202.965C210.86 236.026 26.4476 232.448 10.5462 198.967Z" fill="#B5CEFC"/>
</g>
<path d="M21.2088 51.9986C28.907 35.1864 122.288 15.8254 196.496 19.4397C208.426 20.0208 218.193 28.848 220.143 40.6319C229.505 97.2288 227.203 158.696 216.374 186.02C204.279 216.54 34.4316 219.414 21.2088 186.02C7.98593 152.626 12.8035 70.3547 21.2088 51.9986Z" fill="url(#paint0_linear_67_268)"/>
<path d="M196.505 19.4396C122.306 15.8259 28.9367 35.1866 21.2394 51.9986C12.9063 70.1991 36.3172 87.6536 56.264 85.9741C92.9173 82.888 134.905 86.7658 150.071 91.5C154.129 92.7667 158.778 93.706 163.755 94.4887C188.024 98.3052 224.619 69.5408 220.889 45.2578C220.652 43.7135 220.406 42.172 220.151 40.6341C218.202 28.8501 208.435 20.0207 196.505 19.4396Z" fill="url(#paint1_linear_67_268)"/>
<g filter="url(#filter0_d_67_268)">
<circle cx="35.5" cy="62.5" r="7.5" fill="white"/>
</g>
<g filter="url(#filter1_d_67_268)">
<circle cx="28" cy="80" r="5" fill="white"/>
</g>
<g filter="url(#filter2_d_67_268)">
<circle cx="53" cy="50" r="5" fill="white"/>
</g>
<g filter="url(#filter3_d_67_268)">
<circle cx="202" cy="34" r="5" fill="white"/>
</g>
<path fill-rule="evenodd" clip-rule="evenodd" d="M13.326 114.575C12.8134 141.262 14.9444 169.571 21.4422 186.02C34.6336 219.414 204.077 216.54 216.143 186.02C222.85 169.057 226.278 138.935 225.679 104.989C225.175 132.684 221.843 156.604 216.143 171.02C204.077 201.54 34.6336 204.414 21.4422 171.02C16.1552 157.636 13.7592 136.4 13.326 114.575Z" fill="#0E357B"/>
<path fill-rule="evenodd" clip-rule="evenodd" d="M145.863 59.4991C159 68.9995 149.585 68.6305 146.151 72.2238C146.151 72.2238 113.938 100.793 112.5 122.146C111.062 143.5 145.792 166.432 145.792 166.432C149.422 169.827 159.5 163 146.218 179.153C132.936 195.306 137.128 182.974 133.497 179.579L79.4972 129.079C77.7414 127.437 75.9995 126.5 76 122.758C76.0005 119.016 77.4773 118.025 79.1383 116.287L133.138 59.787C136.573 56.1937 132.726 49.9987 145.863 59.4991Z" fill="white"/>
<g filter="url(#filter4_d_67_268)">
<path d="M211.572 160.256C201.961 175.217 192.233 178.664 185.798 177.078C179.363 175.492 194.598 168.578 199.184 158.296C203.769 148.014 204.688 133.327 211.123 134.913C217.558 136.499 221.184 145.296 211.572 160.256Z" fill="white"/>
</g>
<defs>
<filter id="filter0_d_67_268" x="17" y="43" width="37" height="37" filterUnits="userSpaceOnUse" color-interpolation-filters="sRGB">
<feFlood flood-opacity="0" result="BackgroundImageFix"/>
<feColorMatrix in="SourceAlpha" type="matrix" values="0 0 0 0 0 0 0 0 0 0 0 0 0 0 0 0 0 0 127 0" result="hardAlpha"/>
<feOffset dy="-1"/>
<feGaussianBlur stdDeviation="5.5"/>
<feComposite in2="hardAlpha" operator="out"/>
<feColorMatrix type="matrix" values="0 0 0 0 1 0 0 0 0 1 0 0 0 0 1 0 0 0 1 0"/>
<feBlend mode="normal" in2="BackgroundImageFix" result="effect1_dropShadow_67_268"/>
<feBlend mode="normal" in="SourceGraphic" in2="effect1_dropShadow_67_268" result="shape"/>
</filter>
<filter id="filter1_d_67_268" x="12" y="63" width="32" height="32" filterUnits="userSpaceOnUse" color-interpolation-filters="sRGB">
<feFlood flood-opacity="0" result="BackgroundImageFix"/>
<feColorMatrix in="SourceAlpha" type="matrix" values="0 0 0 0 0 0 0 0 0 0 0 0 0 0 0 0 0 0 127 0" result="hardAlpha"/>
<feOffset dy="-1"/>
<feGaussianBlur stdDeviation="5.5"/>
<feComposite in2="hardAlpha" operator="out"/>
<feColorMatrix type="matrix" values="0 0 0 0 1 0 0 0 0 1 0 0 0 0 1 0 0 0 1 0"/>
<feBlend mode="normal" in2="BackgroundImageFix" result="effect1_dropShadow_67_268"/>
<feBlend mode="normal" in="SourceGraphic" in2="effect1_dropShadow_67_268" result="shape"/>
</filter>
<filter id="filter2_d_67_268" x="37" y="33" width="32" height="32" filterUnits="userSpaceOnUse" color-interpolation-filters="sRGB">
<feFlood flood-opacity="0" result="BackgroundImageFix"/>
<feColorMatrix in="SourceAlpha" type="matrix" values="0 0 0 0 0 0 0 0 0 0 0 0 0 0 0 0 0 0 127 0" result="hardAlpha"/>
<feOffset dy="-1"/>
<feGaussianBlur stdDeviation="5.5"/>
<feComposite in2="hardAlpha" operator="out"/>
<feColorMatrix type="matrix" values="0 0 0 0 1 0 0 0 0 1 0 0 0 0 1 0 0 0 1 0"/>
<feBlend mode="normal" in2="BackgroundImageFix" result="effect1_dropShadow_67_268"/>
<feBlend mode="normal" in="SourceGraphic" in2="effect1_dropShadow_67_268" result="shape"/>
</filter>
<filter id="filter3_d_67_268" x="186" y="17" width="32" height="32" filterUnits="userSpaceOnUse" color-interpolation-filters="sRGB">
<feFlood flood-opacity="0" result="BackgroundImageFix"/>
<feColorMatrix in="SourceAlpha" type="matrix" values="0 0 0 0 0 0 0 0 0 0 0 0 0 0 0 0 0 0 127 0" result="hardAlpha"/>
<feOffset dy="-1"/>
<feGaussianBlur stdDeviation="5.5"/>
<feComposite in2="hardAlpha" operator="out"/>
<feColorMatrix type="matrix" values="0 0 0 0 1 0 0 0 0 1 0 0 0 0 1 0 0 0 1 0"/>
<feBlend mode="normal" in2="BackgroundImageFix" result="effect1_dropShadow_67_268"/>
<feBlend mode="normal" in="SourceGraphic" in2="effect1_dropShadow_67_268" result="shape"/>
</filter>
<filter id="filter4_d_67_268" x="173.236" y="122.794" width="55.2236" height="64.6362" filterUnits="userSpaceOnUse" color-interpolation-filters="sRGB">
<feFlood flood-opacity="0" result="BackgroundImageFix"/>
<feColorMatrix in="SourceAlpha" type="matrix" values="0 0 0 0 0 0 0 0 0 0 0 0 0 0 0 0 0 0 127 0" result="hardAlpha"/>
<feOffset dy="-1"/>
<feGaussianBlur stdDeviation="5.5"/>
<feComposite in2="hardAlpha" operator="out"/>
<feColorMatrix type="matrix" values="0 0 0 0 1 0 0 0 0 1 0 0 0 0 1 0 0 0 1 0"/>
<feBlend mode="normal" in2="BackgroundImageFix" result="effect1_dropShadow_67_268"/>
<feBlend mode="normal" in="SourceGraphic" in2="effect1_dropShadow_67_268" result="shape"/>
</filter>
<linearGradient id="paint0_linear_67_268" x1="119.5" y1="19" x2="119.5" y2="210" gradientUnits="userSpaceOnUse">
<stop offset="0.359375" stop-color="#0058F8"/>
<stop offset="0.921875" stop-color="#26B6D6" stop-opacity="0.78"/>
</linearGradient>
<linearGradient id="paint1_linear_67_268" x1="120" y1="19" x2="120" y2="110" gradientUnits="userSpaceOnUse">
<stop stop-color="#E5ECF8" stop-opacity="0.25"/>
</linearGradient>
</defs>
</svg>
