<svg width="346" height="328" viewBox="0 0 346 328" fill="none" xmlns="http://www.w3.org/2000/svg">
<path d="M13.3344 56.276C25.9576 27.3339 180.404 -6.0373 301.477 0.934896C318.804 1.93273 332.876 14.8763 335.698 32.0017C351.817 129.85 348.252 237.45 330.364 284.837C310.716 336.885 34.8137 341.788 13.3344 284.837C-8.14492 227.886 -0.319151 87.5805 13.3344 56.276Z" fill="#E5ECF8"/>
<path fill-rule="evenodd" clip-rule="evenodd" d="M0.0243234 170.079C-0.337499 213.449 3.30172 258.236 13.3344 284.837C34.8137 341.788 310.716 336.885 330.364 284.837C340.837 257.093 346.4 208.709 345.978 153.727C345.587 203.88 340.095 247.477 330.364 273.256C310.716 325.304 34.8137 330.206 13.3344 273.256C4.19321 249.018 0.359732 209.684 0.0243234 170.079Z" fill="#7F9AC9"/>
<g style="mix-blend-mode:multiply">
<path d="M15.2671 288.043C-6.15475 241.019 31.5733 272.128 31.5733 272.128C150.042 328.585 324.444 311.917 324.444 202.677C324.444 202.677 343.628 245.969 324.444 293.831C305.261 341.693 38.2875 336.514 15.2671 288.043Z" fill="#B5CEFC"/>
</g>
<path d="M30.7041 75.2779C41.8489 50.939 177.037 22.91 284.467 28.1425C301.738 28.9837 315.879 41.7628 318.701 58.8223C332.255 140.758 328.922 229.744 313.245 269.301C295.734 313.484 49.8468 317.646 30.7041 269.301C11.5615 220.956 18.5359 101.852 30.7041 75.2779Z" fill="url(#paint0_linear_68_369)"/>
<path d="M284.479 28.1423C177.061 22.9107 41.8914 50.9392 30.748 75.2779C18.6843 101.627 52.5762 126.896 81.4532 124.464C134.516 119.996 195.301 125.61 217.258 132.464C223.133 134.298 229.862 135.658 237.067 136.791C272.202 142.316 325.18 100.674 319.78 65.5193C319.437 63.2836 319.081 61.052 318.713 58.8255C315.891 41.7658 301.75 28.9835 284.479 28.1423Z" fill="url(#paint1_linear_68_369)"/>
<path fill-rule="evenodd" clip-rule="evenodd" d="M19.2922 165.87C18.5503 204.505 21.6353 245.486 31.0421 269.3C50.1392 317.645 295.442 313.483 312.911 269.3C322.62 244.743 327.583 201.136 326.716 151.992C325.986 192.086 321.162 226.715 312.911 247.585C295.442 291.768 50.1392 295.93 31.0421 247.585C23.3881 228.208 19.9195 197.466 19.2922 165.87Z" fill="#0E357B"/>
<g filter="url(#filter0_d_68_369)">
<path d="M249.092 169.039C248.287 168.406 247.881 167.396 247.991 166.378C248.264 163.851 248.4 161.244 248.4 158.5C248.4 155.86 248.266 153.22 247.942 150.689C247.807 149.635 248.207 148.582 249.046 147.929C253.381 144.555 266.722 134.17 268.245 132.985C269.832 131.751 270.421 129.52 269.812 127.627C269.634 127.074 269.491 126.492 269.542 125.913C271.083 108.144 267.345 100.551 250.975 93.5933C250.364 93.3336 249.872 92.8539 249.439 92.3503C248.105 90.7965 245.963 90.3568 244.047 90.9666L221.372 100.075C220.426 100.454 219.362 100.292 218.5 99.7491C214.382 97.1568 212.104 98.2658 203.445 91.1691C194.996 84.2442 198.639 69.4576 199.596 66.1272C199.726 65.6758 199.775 65.2046 199.635 64.7563C199.083 62.9882 197.63 61.7058 195.84 61.3809C195.261 61.2757 194.675 61.1155 194.188 60.7842C180.185 51.2583 171.78 50.5055 156.818 60.7747C156.328 61.1111 155.736 61.2745 155.152 61.3833C153.363 61.7163 151.965 63.0255 151.444 64.8243C151.326 65.2314 151.358 65.6534 151.457 66.0655C152.207 69.1898 155.113 83.478 147.657 91.1691C140.049 99.0164 136.839 97.3856 132.619 99.7852C131.736 100.287 130.678 100.455 129.736 100.077L107.055 90.9666C105.193 90.2896 103.119 90.7444 101.779 92.2126C101.259 92.783 100.657 93.3141 99.9187 93.5401C84.0079 98.411 79.7112 105.61 81.6498 125.873C81.7074 126.475 81.5575 127.083 81.3537 127.653C80.6592 129.594 81.1939 131.751 82.9578 132.985L102.15 147.923C102.989 148.576 103.398 149.635 103.244 150.687C102.87 153.243 102.6 155.939 102.6 158.5C102.6 161.061 102.735 163.756 103.06 166.311C103.193 167.366 102.787 168.425 101.948 169.077L82.7553 184.015C81.2559 185.182 80.6475 187.239 81.099 189.059C81.2867 189.816 81.4083 190.621 81.1907 191.369C75.7917 209.94 79.1876 217.611 99.7805 223.472C100.538 223.688 101.16 224.23 101.7 224.805C103.041 226.233 105.102 226.623 106.954 226.034L129.629 216.926C130.574 216.547 131.647 216.695 132.469 217.296C136.4 220.169 140.525 222.674 144.982 224.719C146.403 225.37 147.149 227.001 146.818 228.529C145.827 233.107 144.853 242.759 151.2 251.549C158.383 261.497 155.362 257.848 155.457 256.273C155.494 255.663 156.334 255.901 156.832 256.255C172.256 267.247 180.642 266.673 194.145 256.317C194.658 255.923 195.474 255.755 195.457 256.403C195.402 258.552 191.487 264.158 199.699 251.549C206.351 241.336 205.653 233.14 204.517 228.927C204.06 227.231 204.797 225.246 206.389 224.504C210.677 222.505 214.688 220.082 218.423 217.317C219.25 216.705 220.333 216.55 221.288 216.933L243.945 226.034C245.826 226.718 247.924 226.247 249.263 224.742C249.752 224.193 250.316 223.678 251.012 223.438C267.424 217.767 271.114 210.133 269.441 191.083C269.39 190.508 269.528 189.928 269.721 189.384C270.433 187.376 269.838 185.264 268.144 184.015L249.092 169.039ZM175.5 194.95C155.453 194.95 139.05 178.548 139.05 158.5C139.05 138.453 155.453 122.05 175.5 122.05C195.548 122.05 211.95 138.453 211.95 158.5C211.95 178.548 195.548 194.95 175.5 194.95Z" fill="white"/>
</g>
<defs>
<filter id="filter0_d_68_369" x="62.9816" y="35.9811" width="222.991" height="242.789" filterUnits="userSpaceOnUse" color-interpolation-filters="sRGB">
<feFlood flood-opacity="0" result="BackgroundImageFix"/>
<feColorMatrix in="SourceAlpha" type="matrix" values="0 0 0 0 0 0 0 0 0 0 0 0 0 0 0 0 0 0 127 0" result="hardAlpha"/>
<feOffset dy="-1.4477"/>
<feGaussianBlur stdDeviation="7.96234"/>
<feComposite in2="hardAlpha" operator="out"/>
<feColorMatrix type="matrix" values="0 0 0 0 1 0 0 0 0 1 0 0 0 0 1 0 0 0 1 0"/>
<feBlend mode="normal" in2="BackgroundImageFix" result="effect1_dropShadow_68_369"/>
<feBlend mode="normal" in="SourceGraphic" in2="effect1_dropShadow_68_369" result="shape"/>
</filter>
<linearGradient id="paint0_linear_68_369" x1="173" y1="27.5059" x2="173" y2="304.016" gradientUnits="userSpaceOnUse">
<stop offset="0.359375" stop-color="#0058F8"/>
<stop offset="0.921875" stop-color="#26B6D6" stop-opacity="0.78"/>
</linearGradient>
<linearGradient id="paint1_linear_68_369" x1="173.724" y1="27.5059" x2="173.724" y2="159.246" gradientUnits="userSpaceOnUse">
<stop stop-color="#E5ECF8" stop-opacity="0.25"/>
</linearGradient>
</defs>
</svg>
