<svg width="213" height="89" viewBox="0 0 213 89" fill="none" xmlns="http://www.w3.org/2000/svg">
<path d="M8.20876 15.3048C16.3765 7.03176 120.997 -2.572 196.835 0.632222C200.871 0.802747 204.504 3.19832 205.987 6.95572C216.673 34.0219 214.628 64.2941 203.374 77.4641C191.279 91.6191 21.4316 92.9524 8.20876 77.4641C-5.01407 61.9757 -0.196471 23.8184 8.20876 15.3048Z" fill="#E5ECF8"/>
<path fill-rule="evenodd" clip-rule="evenodd" d="M0.0149787 46.2544C-0.207801 58.0494 2.03252 70.2296 8.20876 77.464C21.4316 92.9524 191.279 91.6191 203.374 77.464C209.821 69.9188 213.246 56.7602 212.986 41.8071C212.746 55.4466 209.365 67.3033 203.374 74.3139C191.279 88.469 21.4316 89.8022 8.20876 74.3139C2.58142 67.7224 0.221492 57.0252 0.0149787 46.2544Z" fill="#7F9AC9"/>
<g style="mix-blend-mode:multiply">
<path d="M9.44975 78.3493C-3.73976 65.5536 19.4895 74.0185 19.4895 74.0185C92.4308 89.3811 199.811 84.8456 199.811 55.1201C199.811 55.1201 211.622 66.9004 199.811 79.9242C188 92.948 23.6235 91.5388 9.44975 78.3493Z" fill="#B5CEFC"/>
</g>
<path d="M19.1099 20.4725C26.3497 13.471 118.823 5.34675 186.2 7.99262C190.174 8.14868 193.785 10.4638 195.267 14.1546C204.412 36.9325 202.524 62.1836 192.63 73.2388C181.876 85.2549 30.8662 86.3867 19.1099 73.2388C7.35355 60.0909 11.6368 27.6996 19.1099 20.4725Z" fill="#004CD5"/>
<path d="M186.199 7.99262C118.823 5.34675 26.3489 13.471 19.1091 20.4725C18.5324 21.0302 17.9747 21.7378 17.4419 22.5748C13.3727 28.9675 20.462 35.933 28.0073 35.2306C63.5558 31.9209 116.944 33.7137 133.666 36.0248C147.402 37.9234 168.747 37.9542 184.867 39.8241C192.733 40.7365 200.926 34.4483 199.179 26.7251C198.227 22.5196 196.929 18.2955 195.266 14.1533C193.784 10.4625 190.173 8.14868 186.199 7.99262Z" fill="url(#paint0_linear_68_304)"/>
<path fill-rule="evenodd" clip-rule="evenodd" d="M11.8766 45.1097C11.4198 55.6167 13.319 66.7621 19.1099 73.2384C30.8662 86.3863 181.876 85.2545 192.63 73.2384C198.607 66.5599 201.663 54.7005 201.129 41.3354C200.679 52.2392 197.71 61.6568 192.63 67.3326C181.876 79.3487 30.8662 80.4805 19.1099 67.3326C14.3981 62.0631 12.2627 53.7025 11.8766 45.1097Z" fill="#0E357B"/>
<g filter="url(#filter0_d_68_304)">
<path d="M193.467 61.9943C189.683 67.8844 185.853 69.2415 183.319 68.6171C180.786 67.9928 186.784 65.2707 188.589 61.2224C190.395 57.1741 190.757 51.3917 193.29 52.0161C195.824 52.6405 197.251 56.1041 193.467 61.9943Z" fill="white"/>
</g>
<g filter="url(#filter1_d_68_304)">
<path d="M179.967 14.5099C180.203 13.7845 181.229 13.7845 181.465 14.5099L181.865 15.7417C181.971 16.0662 182.273 16.2858 182.614 16.2858H183.909C184.672 16.2858 184.989 17.2619 184.372 17.7103L183.324 18.4716C183.049 18.6721 182.933 19.0275 183.038 19.352L183.439 20.5838C183.674 21.3093 182.844 21.9125 182.227 21.4642L181.179 20.7029C180.903 20.5024 180.529 20.5024 180.253 20.7029L179.206 21.4642C178.588 21.9125 177.758 21.3093 177.994 20.5838L178.394 19.352C178.5 19.0275 178.384 18.6721 178.108 18.4716L177.06 17.7103C176.443 17.2619 176.76 16.2858 177.523 16.2858H178.818C179.159 16.2858 179.462 16.0662 179.567 15.7417L179.967 14.5099Z" fill="white"/>
</g>
<g filter="url(#filter2_d_68_304)">
<path d="M17.5195 45.0803C23.819 28.3473 21.8504 20.0793 70.0805 15.9453" stroke="white" stroke-width="1.18115" stroke-linecap="round"/>
</g>
<g filter="url(#filter3_d_68_304)">
<circle cx="30.9065" cy="52.1667" r="1.77172" fill="white"/>
</g>
<g filter="url(#filter4_d_68_304)">
<circle cx="30.906" cy="62.404" r="2.95287" fill="white"/>
</g>
<g filter="url(#filter5_d_68_304)">
<circle cx="36.8116" cy="58.0728" r="1.378" fill="white"/>
</g>
<g filter="url(#filter6_d_68_304)">
<circle cx="36.8116" cy="66.7349" r="1.378" fill="white"/>
</g>
<g filter="url(#filter7_d_68_304)">
<circle cx="20.2764" cy="55.317" r="1.378" fill="white"/>
</g>
<g filter="url(#filter8_d_68_304)">
<circle cx="51.38" cy="68.3096" r="1.378" fill="white"/>
</g>
<g filter="url(#filter9_d_68_304)">
<circle cx="71.46" cy="71.0655" r="1.378" fill="white"/>
</g>
<g filter="url(#filter10_d_68_304)">
<circle cx="189.574" cy="25.3946" r="1.378" fill="white"/>
</g>
<g filter="url(#filter11_d_68_304)">
<circle cx="192.33" cy="34.4498" r="1.378" fill="white"/>
</g>
<g filter="url(#filter12_d_68_304)">
<path d="M88.1924 71.7788C102.305 73.891 121.131 73.11 132.682 70.6719" stroke="white" stroke-width="1.18115" stroke-linecap="round"/>
</g>
<path d="M57.804 50.4134V39.7611H55.6795C55.3404 39.7611 55.101 39.3322 54.9614 38.4744C54.9015 38.0555 54.8716 37.6266 54.8716 37.1877C54.8716 36.7489 54.9015 36.32 54.9614 35.9011C55.101 35.0433 55.3404 34.6144 55.6795 34.6144H65.7334C66.0725 34.6144 66.302 35.0433 66.4216 35.9011C66.5014 36.32 66.5413 36.7489 66.5413 37.1877C66.5413 37.6266 66.5014 38.0555 66.4216 38.4744C66.302 39.3322 66.0725 39.7611 65.7334 39.7611H63.7286V50.4134H65.8232C66.1623 50.4134 66.4017 50.8423 66.5413 51.7001C66.6211 52.119 66.661 52.5479 66.661 52.9867C66.661 53.4256 66.6211 53.8545 66.5413 54.2734C66.4017 55.1312 66.1623 55.5601 65.8232 55.5601H55.7394C55.4002 55.5601 55.1708 55.1312 55.0511 54.2734C54.9714 53.8545 54.9315 53.4256 54.9315 52.9867C54.9315 52.5479 54.9714 52.119 55.0511 51.7001C55.1708 50.8423 55.4002 50.4134 55.7394 50.4134H57.804ZM85.0546 54.9018C85.0546 55.3207 84.1171 55.5301 82.2419 55.5301C80.3668 55.5301 79.3494 55.3805 79.1898 55.0813L74.1928 45.7455V55.0514C74.1928 55.4104 73.2652 55.59 71.41 55.59C69.5748 55.59 68.6572 55.4104 68.6572 55.0514V35.0333C68.6572 34.7341 69.4451 34.5845 71.021 34.5845C71.6394 34.5845 72.3576 34.6443 73.1754 34.764C74.0133 34.8638 74.522 35.0632 74.7015 35.3625L79.4891 44.5786V35.1829C79.4891 34.8039 80.4167 34.6144 82.2718 34.6144C84.127 34.6144 85.0546 34.8039 85.0546 35.1829V54.9018ZM90.0348 50.4134V39.7611H87.9103C87.5712 39.7611 87.3318 39.3322 87.1922 38.4744C87.1324 38.0555 87.1024 37.6266 87.1024 37.1877C87.1024 36.7489 87.1324 36.32 87.1922 35.9011C87.3318 35.0433 87.5712 34.6144 87.9103 34.6144H97.9643C98.3034 34.6144 98.5328 35.0433 98.6525 35.9011C98.7323 36.32 98.7722 36.7489 98.7722 37.1877C98.7722 37.6266 98.7323 38.0555 98.6525 38.4744C98.5328 39.3322 98.3034 39.7611 97.9643 39.7611H95.9595V50.4134H98.054C98.3931 50.4134 98.6325 50.8423 98.7722 51.7001C98.852 52.119 98.8918 52.5479 98.8918 52.9867C98.8918 53.4256 98.852 53.8545 98.7722 54.2734C98.6325 55.1312 98.3931 55.5601 98.054 55.5601H87.9702C87.6311 55.5601 87.4017 55.1312 87.282 54.2734C87.2022 53.8545 87.1623 53.4256 87.1623 52.9867C87.1623 52.5479 87.2022 52.119 87.282 51.7001C87.4017 50.8423 87.6311 50.4134 87.9702 50.4134H90.0348ZM109.446 34.3451C110.902 34.3451 112.179 34.5546 113.276 34.9735C114.393 35.3724 114.952 35.921 114.952 36.6192C114.952 37.3174 114.682 38.1851 114.144 39.2224C113.625 40.2398 113.186 40.7485 112.827 40.7485C112.727 40.7485 112.608 40.6986 112.468 40.5989C112.348 40.4792 112.049 40.3595 111.57 40.2398C111.111 40.1002 110.713 40.0304 110.373 40.0304C109.216 40.0304 108.279 40.4393 107.561 41.2572C106.862 42.075 106.513 43.3318 106.513 45.0274C106.513 46.703 106.872 47.9498 107.591 48.7677C108.329 49.5856 109.256 49.9945 110.373 49.9945C110.832 49.9945 111.341 49.9347 111.899 49.815C112.478 49.6753 112.887 49.4858 113.126 49.2464C113.166 49.2065 113.246 49.1866 113.366 49.1866C113.485 49.1866 113.705 49.416 114.024 49.8748C114.363 50.3137 114.672 50.9021 114.952 51.6402C115.231 52.3584 115.37 52.9169 115.37 53.3159C115.37 54.0939 114.772 54.7123 113.575 55.1711C112.378 55.6299 110.962 55.8593 109.326 55.8593C106.693 55.8593 104.529 54.9317 102.833 53.0765C101.137 51.2213 100.29 48.6081 100.29 45.2368C100.29 41.8456 101.157 39.1826 102.893 37.2476C104.648 35.3126 106.833 34.3451 109.446 34.3451ZM119.636 50.4134V39.7611H117.511C117.172 39.7611 116.933 39.3322 116.793 38.4744C116.733 38.0555 116.703 37.6266 116.703 37.1877C116.703 36.7489 116.733 36.32 116.793 35.9011C116.933 35.0433 117.172 34.6144 117.511 34.6144H127.565C127.904 34.6144 128.134 35.0433 128.253 35.9011C128.333 36.32 128.373 36.7489 128.373 37.1877C128.373 37.6266 128.333 38.0555 128.253 38.4744C128.134 39.3322 127.904 39.7611 127.565 39.7611H125.56V50.4134H127.655C127.994 50.4134 128.233 50.8423 128.373 51.7001C128.453 52.119 128.493 52.5479 128.493 52.9867C128.493 53.4256 128.453 53.8545 128.373 54.2734C128.233 55.1312 127.994 55.5601 127.655 55.5601H117.571C117.232 55.5601 117.003 55.1312 116.883 54.2734C116.803 53.8545 116.763 53.4256 116.763 52.9867C116.763 52.5479 116.803 52.119 116.883 51.7001C117.003 50.8423 117.232 50.4134 117.571 50.4134H119.636ZM144.552 55.6199C142.817 55.6199 141.879 55.3406 141.74 54.7821L140.752 50.9221H135.995L135.127 54.6325C135.007 55.2509 134.05 55.5601 132.254 55.5601C131.297 55.5601 130.589 55.5102 130.13 55.4104C129.671 55.2908 129.442 55.201 129.442 55.1411L134.738 34.8837C134.738 34.7241 136.104 34.6443 138.837 34.6443C141.57 34.6443 142.937 34.7241 142.937 34.8837L148.113 55.1711C148.113 55.3107 147.654 55.4204 146.737 55.5002C145.819 55.58 145.091 55.6199 144.552 55.6199ZM136.743 47.122H139.885L138.538 40.928H138.359L136.743 47.122ZM155.811 55.1411C155.811 55.4603 154.864 55.6199 152.969 55.6199C151.054 55.6199 150.096 55.4703 150.096 55.1711V35.6617C150.096 34.9635 150.465 34.6144 151.203 34.6144H156.919C162.165 34.6144 164.788 36.6591 164.788 40.7485C164.788 41.9853 164.549 43.1124 164.07 44.1297C163.591 45.1271 162.913 45.9251 162.035 46.5235L165.806 52.8072C165.646 53.286 165.127 53.8345 164.25 54.4529C163.053 55.3107 162.065 55.7396 161.287 55.7396C160.509 55.7396 159.931 55.4603 159.552 54.9018L156.739 48.3488H155.811V55.1411ZM155.811 39.9107V44.399H155.961C157.856 44.399 158.804 43.6111 158.804 42.0351C158.804 41.317 158.614 40.7884 158.235 40.4493C157.876 40.0902 157.278 39.9107 156.44 39.9107H155.811Z" fill="white"/>
<defs>
<filter id="filter0_d_68_304" x="178.373" y="47.2447" width="21.7428" height="25.4484" filterUnits="userSpaceOnUse" color-interpolation-filters="sRGB">
<feFlood flood-opacity="0" result="BackgroundImageFix"/>
<feColorMatrix in="SourceAlpha" type="matrix" values="0 0 0 0 0 0 0 0 0 0 0 0 0 0 0 0 0 0 127 0" result="hardAlpha"/>
<feOffset dy="-0.393715"/>
<feGaussianBlur stdDeviation="2.16543"/>
<feComposite in2="hardAlpha" operator="out"/>
<feColorMatrix type="matrix" values="0 0 0 0 1 0 0 0 0 1 0 0 0 0 1 0 0 0 1 0"/>
<feBlend mode="normal" in2="BackgroundImageFix" result="effect1_dropShadow_68_304"/>
<feBlend mode="normal" in="SourceGraphic" in2="effect1_dropShadow_68_304" result="shape"/>
</filter>
<filter id="filter1_d_68_304" x="172.404" y="9.24124" width="16.6256" height="16.3141" filterUnits="userSpaceOnUse" color-interpolation-filters="sRGB">
<feFlood flood-opacity="0" result="BackgroundImageFix"/>
<feColorMatrix in="SourceAlpha" type="matrix" values="0 0 0 0 0 0 0 0 0 0 0 0 0 0 0 0 0 0 127 0" result="hardAlpha"/>
<feOffset dy="-0.393715"/>
<feGaussianBlur stdDeviation="2.16543"/>
<feComposite in2="hardAlpha" operator="out"/>
<feColorMatrix type="matrix" values="0 0 0 0 1 0 0 0 0 1 0 0 0 0 1 0 0 0 1 0"/>
<feBlend mode="normal" in2="BackgroundImageFix" result="effect1_dropShadow_68_304"/>
<feBlend mode="normal" in="SourceGraphic" in2="effect1_dropShadow_68_304" result="shape"/>
</filter>
<filter id="filter2_d_68_304" x="12.5978" y="10.6299" width="62.4039" height="38.9781" filterUnits="userSpaceOnUse" color-interpolation-filters="sRGB">
<feFlood flood-opacity="0" result="BackgroundImageFix"/>
<feColorMatrix in="SourceAlpha" type="matrix" values="0 0 0 0 0 0 0 0 0 0 0 0 0 0 0 0 0 0 127 0" result="hardAlpha"/>
<feOffset dy="-0.393715"/>
<feGaussianBlur stdDeviation="2.16543"/>
<feComposite in2="hardAlpha" operator="out"/>
<feColorMatrix type="matrix" values="0 0 0 0 1 0 0 0 0 1 0 0 0 0 1 0 0 0 1 0"/>
<feBlend mode="normal" in2="BackgroundImageFix" result="effect1_dropShadow_68_304"/>
<feBlend mode="normal" in="SourceGraphic" in2="effect1_dropShadow_68_304" result="shape"/>
</filter>
<filter id="filter3_d_68_304" x="24.8039" y="45.6704" width="12.2047" height="12.2052" filterUnits="userSpaceOnUse" color-interpolation-filters="sRGB">
<feFlood flood-opacity="0" result="BackgroundImageFix"/>
<feColorMatrix in="SourceAlpha" type="matrix" values="0 0 0 0 0 0 0 0 0 0 0 0 0 0 0 0 0 0 127 0" result="hardAlpha"/>
<feOffset dy="-0.393715"/>
<feGaussianBlur stdDeviation="2.16543"/>
<feComposite in2="hardAlpha" operator="out"/>
<feColorMatrix type="matrix" values="0 0 0 0 1 0 0 0 0 1 0 0 0 0 1 0 0 0 1 0"/>
<feBlend mode="normal" in2="BackgroundImageFix" result="effect1_dropShadow_68_304"/>
<feBlend mode="normal" in="SourceGraphic" in2="effect1_dropShadow_68_304" result="shape"/>
</filter>
<filter id="filter4_d_68_304" x="23.6223" y="54.7266" width="14.567" height="14.5675" filterUnits="userSpaceOnUse" color-interpolation-filters="sRGB">
<feFlood flood-opacity="0" result="BackgroundImageFix"/>
<feColorMatrix in="SourceAlpha" type="matrix" values="0 0 0 0 0 0 0 0 0 0 0 0 0 0 0 0 0 0 127 0" result="hardAlpha"/>
<feOffset dy="-0.393715"/>
<feGaussianBlur stdDeviation="2.16543"/>
<feComposite in2="hardAlpha" operator="out"/>
<feColorMatrix type="matrix" values="0 0 0 0 1 0 0 0 0 1 0 0 0 0 1 0 0 0 1 0"/>
<feBlend mode="normal" in2="BackgroundImageFix" result="effect1_dropShadow_68_304"/>
<feBlend mode="normal" in="SourceGraphic" in2="effect1_dropShadow_68_304" result="shape"/>
</filter>
<filter id="filter5_d_68_304" x="31.1027" y="51.9702" width="11.4176" height="11.4176" filterUnits="userSpaceOnUse" color-interpolation-filters="sRGB">
<feFlood flood-opacity="0" result="BackgroundImageFix"/>
<feColorMatrix in="SourceAlpha" type="matrix" values="0 0 0 0 0 0 0 0 0 0 0 0 0 0 0 0 0 0 127 0" result="hardAlpha"/>
<feOffset dy="-0.393715"/>
<feGaussianBlur stdDeviation="2.16543"/>
<feComposite in2="hardAlpha" operator="out"/>
<feColorMatrix type="matrix" values="0 0 0 0 1 0 0 0 0 1 0 0 0 0 1 0 0 0 1 0"/>
<feBlend mode="normal" in2="BackgroundImageFix" result="effect1_dropShadow_68_304"/>
<feBlend mode="normal" in="SourceGraphic" in2="effect1_dropShadow_68_304" result="shape"/>
</filter>
<filter id="filter6_d_68_304" x="31.1027" y="60.6324" width="11.4176" height="11.4176" filterUnits="userSpaceOnUse" color-interpolation-filters="sRGB">
<feFlood flood-opacity="0" result="BackgroundImageFix"/>
<feColorMatrix in="SourceAlpha" type="matrix" values="0 0 0 0 0 0 0 0 0 0 0 0 0 0 0 0 0 0 127 0" result="hardAlpha"/>
<feOffset dy="-0.393715"/>
<feGaussianBlur stdDeviation="2.16543"/>
<feComposite in2="hardAlpha" operator="out"/>
<feColorMatrix type="matrix" values="0 0 0 0 1 0 0 0 0 1 0 0 0 0 1 0 0 0 1 0"/>
<feBlend mode="normal" in2="BackgroundImageFix" result="effect1_dropShadow_68_304"/>
<feBlend mode="normal" in="SourceGraphic" in2="effect1_dropShadow_68_304" result="shape"/>
</filter>
<filter id="filter7_d_68_304" x="14.5676" y="49.2144" width="11.4176" height="11.4176" filterUnits="userSpaceOnUse" color-interpolation-filters="sRGB">
<feFlood flood-opacity="0" result="BackgroundImageFix"/>
<feColorMatrix in="SourceAlpha" type="matrix" values="0 0 0 0 0 0 0 0 0 0 0 0 0 0 0 0 0 0 127 0" result="hardAlpha"/>
<feOffset dy="-0.393715"/>
<feGaussianBlur stdDeviation="2.16543"/>
<feComposite in2="hardAlpha" operator="out"/>
<feColorMatrix type="matrix" values="0 0 0 0 1 0 0 0 0 1 0 0 0 0 1 0 0 0 1 0"/>
<feBlend mode="normal" in2="BackgroundImageFix" result="effect1_dropShadow_68_304"/>
<feBlend mode="normal" in="SourceGraphic" in2="effect1_dropShadow_68_304" result="shape"/>
</filter>
<filter id="filter8_d_68_304" x="45.6711" y="62.2071" width="11.4176" height="11.4176" filterUnits="userSpaceOnUse" color-interpolation-filters="sRGB">
<feFlood flood-opacity="0" result="BackgroundImageFix"/>
<feColorMatrix in="SourceAlpha" type="matrix" values="0 0 0 0 0 0 0 0 0 0 0 0 0 0 0 0 0 0 127 0" result="hardAlpha"/>
<feOffset dy="-0.393715"/>
<feGaussianBlur stdDeviation="2.16543"/>
<feComposite in2="hardAlpha" operator="out"/>
<feColorMatrix type="matrix" values="0 0 0 0 1 0 0 0 0 1 0 0 0 0 1 0 0 0 1 0"/>
<feBlend mode="normal" in2="BackgroundImageFix" result="effect1_dropShadow_68_304"/>
<feBlend mode="normal" in="SourceGraphic" in2="effect1_dropShadow_68_304" result="shape"/>
</filter>
<filter id="filter9_d_68_304" x="65.7512" y="64.9629" width="11.4176" height="11.4176" filterUnits="userSpaceOnUse" color-interpolation-filters="sRGB">
<feFlood flood-opacity="0" result="BackgroundImageFix"/>
<feColorMatrix in="SourceAlpha" type="matrix" values="0 0 0 0 0 0 0 0 0 0 0 0 0 0 0 0 0 0 127 0" result="hardAlpha"/>
<feOffset dy="-0.393715"/>
<feGaussianBlur stdDeviation="2.16543"/>
<feComposite in2="hardAlpha" operator="out"/>
<feColorMatrix type="matrix" values="0 0 0 0 1 0 0 0 0 1 0 0 0 0 1 0 0 0 1 0"/>
<feBlend mode="normal" in2="BackgroundImageFix" result="effect1_dropShadow_68_304"/>
<feBlend mode="normal" in="SourceGraphic" in2="effect1_dropShadow_68_304" result="shape"/>
</filter>
<filter id="filter10_d_68_304" x="183.865" y="19.292" width="11.4176" height="11.4176" filterUnits="userSpaceOnUse" color-interpolation-filters="sRGB">
<feFlood flood-opacity="0" result="BackgroundImageFix"/>
<feColorMatrix in="SourceAlpha" type="matrix" values="0 0 0 0 0 0 0 0 0 0 0 0 0 0 0 0 0 0 127 0" result="hardAlpha"/>
<feOffset dy="-0.393715"/>
<feGaussianBlur stdDeviation="2.16543"/>
<feComposite in2="hardAlpha" operator="out"/>
<feColorMatrix type="matrix" values="0 0 0 0 1 0 0 0 0 1 0 0 0 0 1 0 0 0 1 0"/>
<feBlend mode="normal" in2="BackgroundImageFix" result="effect1_dropShadow_68_304"/>
<feBlend mode="normal" in="SourceGraphic" in2="effect1_dropShadow_68_304" result="shape"/>
</filter>
<filter id="filter11_d_68_304" x="186.621" y="28.3472" width="11.4176" height="11.4176" filterUnits="userSpaceOnUse" color-interpolation-filters="sRGB">
<feFlood flood-opacity="0" result="BackgroundImageFix"/>
<feColorMatrix in="SourceAlpha" type="matrix" values="0 0 0 0 0 0 0 0 0 0 0 0 0 0 0 0 0 0 127 0" result="hardAlpha"/>
<feOffset dy="-0.393715"/>
<feGaussianBlur stdDeviation="2.16543"/>
<feComposite in2="hardAlpha" operator="out"/>
<feColorMatrix type="matrix" values="0 0 0 0 1 0 0 0 0 1 0 0 0 0 1 0 0 0 1 0"/>
<feBlend mode="normal" in2="BackgroundImageFix" result="effect1_dropShadow_68_304"/>
<feBlend mode="normal" in="SourceGraphic" in2="effect1_dropShadow_68_304" result="shape"/>
</filter>
<filter id="filter12_d_68_304" x="83.2707" y="65.3565" width="54.3326" height="12.1749" filterUnits="userSpaceOnUse" color-interpolation-filters="sRGB">
<feFlood flood-opacity="0" result="BackgroundImageFix"/>
<feColorMatrix in="SourceAlpha" type="matrix" values="0 0 0 0 0 0 0 0 0 0 0 0 0 0 0 0 0 0 127 0" result="hardAlpha"/>
<feOffset dy="-0.393715"/>
<feGaussianBlur stdDeviation="2.16543"/>
<feComposite in2="hardAlpha" operator="out"/>
<feColorMatrix type="matrix" values="0 0 0 0 1 0 0 0 0 1 0 0 0 0 1 0 0 0 1 0"/>
<feBlend mode="normal" in2="BackgroundImageFix" result="effect1_dropShadow_68_304"/>
<feBlend mode="normal" in="SourceGraphic" in2="effect1_dropShadow_68_304" result="shape"/>
</filter>
<linearGradient id="paint0_linear_68_304" x1="106.926" y1="7.48047" x2="106.926" y2="43.3086" gradientUnits="userSpaceOnUse">
<stop stop-color="#E5ECF8" stop-opacity="0.45"/>
<stop offset="0.729167" stop-color="#004CD5"/>
</linearGradient>
</defs>
</svg>
